#!OML:ASF E:\emotionWalksFemale\Project 1\Capture day 1\Session 1\Female1.ASF
:FULLY-SPECIFIED
:DEGREES
533
root 8.83817 15.0959 12.3006 173.157 10.0678 -173.104
lowerback 7.86265 1.54382 3.7536
upperback -2.79426 2.65628 1.72523
thorax -7.27377 1.19961 -0.667812
lowerneck -11.8448 -1.76616 -4.13159
upperneck 20.5203 -1.72841 3.64898
head 8.39776 -0.492387 1.77113
rclavicle -2.3059e-014 -6.36111e-015
rhumerus -15.2111 -0.138494 -66.1144
rradius 39.8568
rwrist 21.3722
rhand -0.904313 -60.0251
rfingers 7.12502
rthumb 24.7239 -88.4475
lclavicle -2.3059e-014 -6.36111e-015
lhumerus -67.3855 2.91931 70.3096
lradius 29.7521
lwrist -30.3744
lhand 14.3355 -26.5842
lfingers 7.12502
lthumb 39.2258 -1.12925
rfemur 12.6706 16.4708 37.5162
rtibia 16.8796
rfoot -17.6563 -18.5534
rtoes -14.0876
lfemur -29.7295 -9.77931 -11.608
ltibia 49.7884
lfoot -18.785 9.42086
ltoes -25.8989
534
root 8.82644 15.1078 12.1331 173.291 10.7181 -173.21
lowerback 7.75302 1.76159 3.96093
upperback -2.79129 2.95075 1.60194
thorax -7.18021 1.33154 -0.948279
lowerneck -11.8392 -1.80935 -4.0928
upperneck 20.4403 -1.80696 3.66716
head 8.37282 -0.52791 1.761
rclavicle -2.67862e-014 -2.26615e-014
rhumerus -13.5142 2.15839 -66.3896
rradius 41.1462
rwrist 20.4942
rhand -0.116787 -60.8566
rfingers 7.12502
rthumb 25.4785 -89.1734
lclavicle -2.67862e-014 -2.26615e-014
lhumerus -68.9288 1.94587 70.6578
lradius 30.4334
lwrist -27.5058
lhand 13.6777 -26.6045
lfingers 7.12502
lthumb 38.6055 -0.972586
rfemur 14.2403 16.8357 37.4909
rtibia 15.0214
rfoot -17.7113 -18.2739
rtoes -12.4291
lfemur -29.7178 -11.4309 -10.74
ltibia 46.1787
lfoot -19.6487 10.0515
ltoes -25.2235
535
root 8.81702 15.1199 11.9632 173.488 11.3179 -173.156
lowerback 7.70392 1.94543 4.02831
upperback -2.89221 3.22068 1.71448
thorax -7.25228 1.46421 -0.904101
lowerneck -11.7293 -1.79977 -4.29207
upperneck 20.3846 -1.75581 3.67015
head 8.33405 -0.520008 1.80047
rclavicle -1.91827e-014 4.37326e-015
rhumerus -11.8468 4.71925 -66.2184
rradius 42.3864
rwrist 19.4264
rhand 0.0954995 -60.8783
rfingers 7.12502
rthumb 25.6818 -89.1659
lclavicle -1.91827e-014 4.37326e-015
lhumerus -70.6047 1.34496 70.9837
lradius 30.9874
lwrist -24.9122
lhand 13.4677 -26.9544
lfingers 7.12502
lthumb 38.4074 -1.26723
rfemur 15.8176 17.1244 37.5692
rtibia 13.033
rfoot -17.5959 -17.9078
rtoes -10.3243
lfemur -29.789 -13.3366 -9.5565
ltibia 42.8547
lfoot -21.0945 10.5142
ltoes -21.2875
536
root 8.80884 15.1248 11.7944 173.707 12.033 -173.093
lowerback 7.17389 2.22141 4.16964
upperback -2.68552 3.57012 1.79016
thorax -6.70878 1.64697 -0.920072
lowerneck -11.8159 -1.81067 -4.48271
upperneck 20.1236 -1.77525 3.77566
head 8.26575 -0.545178 1.8611
rclavicle -7.90169e-015 1.07344e-014
rhumerus -9.58579 6.42576 -65.903
rradius 43.0305
rwrist 18.5637
rhand -0.0168546 -60.3732
rfingers 7.12502
rthumb 25.5742 -88.6763
lclavicle -7.90169e-015 1.07344e-014
lhumerus -71.741 0.722107 71.3295
lradius 31.5202
lwrist -22.3093
lhand 13.2495 -27.2036
lfingers 7.12502
lthumb 38.2014 -1.45948
rfemur 17.3987 17.2038 37.518
rtibia 10.8997
rfoot -17.1108 -17.2914
rtoes -9.14438
lfemur -29.901 -15.3823 -8.21687
ltibia 39.9215
lfoot -22.542 11.3047
ltoes -17.6631
537
root 8.79867 15.1226 11.6276 173.992 12.6666 -173.125
lowerback 6.93264 2.46863 4.27316
upperback -2.71898 3.89888 1.78327
thorax -6.58494 1.80762 -1.01304
lowerneck -11.8421 -1.8065 -4.62518
upperneck 20.0045 -1.77166 3.88441
head 8.23266 -0.548239 1.91983
rclavicle 1.84373e-014 -1.86858e-014
rhumerus -7.69241 8.05511 -65.5632
rradius 43.691
rwrist 17.4592
rhand -0.677496 -58.9163
rfingers 7.12502
rthumb 24.9413 -87.3087
lclavicle 1.84373e-014 -1.86858e-014
lhumerus -73.0712 -0.0976595 71.5814
lradius 32.0415
lwrist -19.7584
lhand 13.0213 -27.4409
lfingers 7.12502
lthumb 37.986 -1.63785
rfemur 18.9763 17.5484 37.4072
rtibia 8.56594
rfoot -16.2783 -17.0408
rtoes -9.43164
lfemur -30.1953 -17.5007 -6.89066
ltibia 37.4819
lfoot -22.9102 12.7534
ltoes -20.6169
538
root 8.78685 15.1132 11.4626 174.31 13.0671 -173.083
lowerback 6.73088 2.63791 4.3964
upperback -2.83405 4.13549 1.79175
thorax -6.57373 1.92038 -1.09251
lowerneck -11.6168 -1.81449 -4.66598
upperneck 19.7753 -1.78574 3.87565
head 8.11597 -0.564299 1.91956
rclavicle -1.54058e-015 2.06736e-014
rhumerus -6.00447 9.66534 -65.1419
rradius 44.7217
rwrist 16.8407
rhand -0.515178 -58.7545
rfingers 7.12502
rthumb 25.0968 -87.1252
lclavicle -1.54058e-015 2.06736e-014
lhumerus -74.2322 -0.769131 71.4937
lradius 32.1487
lwrist -17.8558
lhand 13.2323 -27.4961
lfingers 7.12502
lthumb 38.1852 -1.74748
rfemur 20.7633 17.66 37.3424
rtibia 5.72573
rfoot -15.3893 -16.6533
rtoes -9.49872
lfemur -30.7109 -19.6135 -5.46554
ltibia 35.5871
lfoot -22.7549 14.2719
ltoes -25.3556
539
root 8.77509 15.0996 11.2959 174.588 13.3431 -172.927
lowerback 6.52317 2.7686 4.67966
upperback -2.91451 4.32826 1.75053
thorax -6.50856 2.00473 -1.30451
lowerneck -11.4518 -1.86713 -4.47543
upperneck 19.568 -1.88554 3.75963
head 8.01841 -0.614231 1.83612
rclavicle 3.42904e-015 -1.59028e-015
rhumerus -4.49919 11.0868 -64.7451
rradius 45.8541
rwrist 16.3123
rhand -0.453654 -58.392
rfingers 7.12502
rthumb 25.1558 -86.7544
lclavicle 3.42904e-015 -1.59028e-015
lhumerus -75.0901 -1.26733 70.8354
lradius 32.0008
lwrist -16.9243
lhand 14.051 -27.2474
lfingers 7.12502
lthumb 38.9576 -1.71523
rfemur 24.0629 17.6184 37.3929
rtibia 6.36111e-015
rfoot -13.0915 -15.8461
rtoes -9.36928
lfemur -31.2917 -21.5526 -4.00404
ltibia 34.1893
lfoot -23.1979 15.5649
ltoes -26.3477
540
root 8.76306 15.0869 11.1253 174.786 13.5512 -172.763
lowerback 6.28689 2.84397 5.01333
upperback -2.90337 4.44389 1.72607
thorax -6.32985 2.05353 -1.51236
lowerneck -11.5435 -1.88586 -4.52879
upperneck 19.4687 -1.92774 3.85045
head 8.00512 -0.634278 1.86899
rclavicle 1.85367e-014 -5.96354e-015
rhumerus -3.32101 12.7481 -64.0312
rradius 47.5861
rwrist 15.5409
rhand -0.0739445 -58.5609
rfingers 7.12502
rthumb 25.5195 -86.8718
lclavicle 1.85367e-014 -5.96354e-015
lhumerus -75.7771 -1.45449 69.802
lradius 31.8582
lwrist -16.8089
lhand 15.1945 -27.0291
lfingers 7.12502
lthumb 40.0347 -1.81349
rfemur 24.5886 17.4881 37.4619
rtibia -3.81667e-014
rfoot -13.441 -15.9679
rtoes -10.6718
lfemur -31.7415 -23.0985 -2.77828
ltibia 33.2181
lfoot -24.1989 16.6568
ltoes -25.9404
541
root 8.7523 15.0699 10.9565 174.827 13.7632 -172.819
lowerback 6.15855 2.90883 5.01037
upperback -2.8418 4.52095 1.76322
thorax -6.18962 2.09772 -1.47026
lowerneck -11.7072 -1.86626 -4.76471
upperneck 19.4329 -1.87702 3.94212
head 8.02393 -0.622682 1.94286
rclavicle -3.68249e-014 -2.06736e-014
rhumerus -1.23872 14.13 -63.3961
rradius 48.3236
rwrist 14.9735
rhand -0.0933972 -58.7125
rfingers 7.12502
rthumb 25.5009 -87.0261
lclavicle -3.68249e-014 -2.06736e-014
lhumerus -76.3356 -1.40001 68.6269
lradius 31.5001
lwrist -17.3353
lhand 16.1643 -27.0038
lfingers 7.12502
lthumb 40.9464 -2.0704
rfemur 25.2388 17.3515 37.3438
rtibia 0
rfoot -13.7746 -16.1958
rtoes -12.3288
lfemur -31.9076 -24.0591 -2.14995
ltibia 32.6596
lfoot -24.2732 17.4309
ltoes -25.4563
542
root 8.74301 15.0453 10.7898 174.794 13.9556 -172.872
lowerback 6.11858 2.94921 4.95504
upperback -2.81483 4.56767 1.79129
thorax -6.14173 2.12544 -1.41201
lowerneck -11.5764 -1.81072 -4.72799
upperneck 19.2862 -1.80165 3.87101
head 7.94689 -0.594931 1.91917
rclavicle 1.06847e-014 -7.95139e-016
rhumerus 0.374546 15.4189 -62.8226
rradius 49.3033
rwrist 14.2982
rhand -0.422125 -58.98
rfingers 7.12502
rthumb 25.186 -87.3382
lclavicle 1.06847e-014 -7.95139e-016
lhumerus -76.7272 -1.33891 67.1722
lradius 30.8292
lwrist -18.4602
lhand 16.7522 -26.7781
lfingers 7.12502
lthumb 41.4984 -2.02219
rfemur 25.9737 17.1797 37.2302
rtibia 3.18055e-014
rfoot -14.1512 -16.2742
rtoes -13.2225
lfemur -31.9021 -24.4969 -1.83909
ltibia 32.4434
lfoot -24.5818 17.6468
ltoes -22.0116
543
root 8.73228 15.0125 10.6223 174.845 13.9934 -172.59
lowerback 6.05634 2.94295 5.29793
upperback -2.84664 4.59329 1.81524
thorax -6.11612 2.12737 -1.57619
lowerneck -11.2901 -1.77166 -4.6349
upperneck 19.1516 -1.78217 3.92936
head 7.84884 -0.573467 1.92443
rclavicle -8.02096e-014 -1.59028e-014
rhumerus 1.64641 16.4145 -62.3065
rradius 50.4684
rwrist 13.7845
rhand -0.610259 -58.4876
rfingers 7.12502
rthumb 25.0057 -86.8711
lclavicle -8.02096e-014 -1.59028e-014
lhumerus -76.9678 -1.42849 65.4502
lradius 30.0313
lwrist -20.0751
lhand 17.3864 -26.0485
lfingers 7.12502
lthumb 42.093 -1.48971
rfemur 26.6501 16.8314 37.4148
rtibia 3.18055e-015
rfoot -14.4277 -16.1908
rtoes -13.7774
lfemur -31.5863 -23.8992 -1.78074
ltibia 32.4619
lfoot -24.5759 17.6454
ltoes -22.9971
544
root 8.72094 14.9782 10.4534 174.851 13.9529 -172.32
lowerback 6.03531 2.92432 5.62004
upperback -2.8505 4.60286 1.85719
thorax -6.08851 2.12302 -1.71012
lowerneck -11.256 -1.75357 -4.61944
upperneck 19.1788 -1.76601 3.97492
head 7.85107 -0.558266 1.93928
rclavicle -3.57812e-015 -1.94809e-014
rhumerus 2.97899 17.2218 -61.7571
rradius 51.4095
rwrist 13.3996
rhand -1.15062 -56.8833
rfingers 7.12502
rthumb 24.4878 -85.3378
lclavicle -3.57812e-015 -1.94809e-014
lhumerus -77.0091 -1.37704 63.4331
lradius 29.1251
lwrist -22.271
lhand 18.022 -25.4222
lfingers 7.12502
lthumb 42.6882 -1.06696
rfemur 27.3502 16.3989 37.5798
rtibia 2.54444e-014
rfoot -14.666 -16.1678
rtoes -13.915
lfemur -31.1662 -22.9861 -1.96891
ltibia 32.6771
lfoot -24.771 17.063
ltoes -21.8566
545
root 8.71366 14.9472 10.285 174.772 13.8613 -172.386
lowerback 6.07391 2.90547 5.4895
upperback -2.89004 4.5717 1.86075
thorax -6.16422 2.11005 -1.63513
lowerneck -11.2145 -1.73166 -4.63341
upperneck 19.2027 -1.73605 4.00403
head 7.85042 -0.540436 1.95494
rclavicle -4.6118e-014 -2.94201e-014
rhumerus 4.17709 18.1554 -61.1877
rradius 52.2421
rwrist 13.062
rhand -1.68058 -56.2607
rfingers 7.12502
rthumb 23.9797 -84.783
lclavicle -4.6118e-014 -2.94201e-014
lhumerus -76.8821 -1.06264 61.029
lradius 28.0572
lwrist -25.206
lhand 18.2177 -25.1387
lfingers 7.12502
lthumb 42.8713 -0.847452
rfemur 28.0952 15.9485 37.4061
rtibia 8.5875e-014
rfoot -14.9819 -16.2189
rtoes -13.4435
lfemur -30.6211 -21.678 -2.73084
ltibia 32.9823
lfoot -24.5857 16.7832
ltoes -21.913
546
root 8.7085 14.9208 10.1181 174.693 13.7142 -172.658
lowerback 6.0933 2.8774 5.10461
upperback -2.95184 4.498 1.80998
thorax -6.26799 2.08278 -1.47118
lowerneck -11.3114 -1.74526 -4.61863
upperneck 19.4203 -1.73356 3.95012
head 7.93962 -0.536674 1.93778
rclavicle 5.1684e-015 -2.50469e-014
rhumerus 5.14648 19.0617 -60.6672
rradius 53.3531
rwrist 12.7423
rhand -2.13686 -56.3556
rfingers 7.12502
rthumb 23.5421 -84.9348
lclavicle 5.1684e-015 -2.50469e-014
lhumerus -76.642 -0.534701 58.2778
lradius 26.9908
lwrist -28.699
lhand 17.9633 -25.1889
lfingers 7.12502
lthumb 42.6332 -0.814615
rfemur 28.8116 15.4742 37.019
rtibia -2.8625e-014
rfoot -15.2447 -16.3427
rtoes -13.5936
lfemur -29.7129 -19.9332 -3.97443
ltibia 33.3347
lfoot -24.6384 16.5887
ltoes -22.0112
547
root 8.70076 14.8875 9.95254 174.605 13.5903 -172.857
lowerback 6.14307 2.82183 4.85854
upperback -2.98178 4.39812 1.74207
thorax -6.34521 2.0377 -1.39931
lowerneck -11.6339 -1.79554 -4.46816
upperneck 19.8439 -1.76505 3.73261
head 8.13785 -0.551121 1.84178
rclavicle 4.02539e-015 6.75868e-015
rhumerus 6.07881 19.812 -60.3319
rradius 54.5511
rwrist 12.3569
rhand -3.11919 -56.4509
rfingers 7.12502
rthumb 22.5996 -85.148
lclavicle 4.02539e-015 6.75868e-015
lhumerus -76.3511 0.151544 55.3543
lradius 26.1632
lwrist -32.2755
lhand 17.5957 -25.0967
lfingers 7.12502
lthumb 42.2891 -0.604286
rfemur 29.5466 15.0032 36.726
rtibia 1.27222e-013
rfoot -15.4606 -16.4798
rtoes -14.1044
lfemur -28.8306 -18.4773 -5.02831
ltibia 33.686
lfoot -24.8551 16.7017
ltoes -20.6281
